# xmcd
#
# Track frame offsets: 
#        150
#        14119
#        36002
#        48167
#        65759
#        81811
#        96331
#        113195
#        125663
#        141364
#        152042
#        166200
#        184447
#        198754
#        215437
#        228125
#        254212
#        268105
#        291071
#        308102
#
# Disc length: 4272 seconds
#
# Revision: 0
# Processed by: cddbd v1.5.2PL0 Copyright (c) Steve Scherf et al.
# Submitted via: ExactAudioCopy v1.3
#
DISCID=2d10ae14
DTITLE=second wind - home-made
DYEAR=2010
DGENRE=Bluegrass
TTITLE0=there is a time
TTITLE1=blues, stay away from me
TTITLE2=rabbit in a log (w john lambert)
TTITLE3=great speckled bird (w jon wesley armstrong)
TTITLE4=goodnight, irene
TTITLE5=old joe clark
TTITLE6=stealin'
TTITLE7=angel band
TTITLE8=fireball mail ~ cannonball blues
TTITLE9=the fields have turned brown (w john lambert)
TTITLE10=the hills of ohio
TTITLE11=come all ye fair and tender ladies
TTITLE12=little maggie
TTITLE13=bury me beneath the willow
TTITLE14=jimmy brown the newsboy
TTITLE15=white freightliner blues ~ cross-tie walker
TTITLE16=single girl, married girl (redux)
TTITLE17=i'll be all smiles tonight
TTITLE18=the wind and the rain (wolf's mix)
TTITLE19=the raven and the wolf (jon wesley armstrong)
EXTD=
EXTT0=
EXTT1=
EXTT2=
EXTT3=
EXTT4=
EXTT5=
EXTT6=
EXTT7=
EXTT8=
EXTT9=
EXTT10=
EXTT11=
EXTT12=
EXTT13=
EXTT14=
EXTT15=
EXTT16=
EXTT17=
EXTT18=
EXTT19=
PLAYORDER=
